<?xml version="1.0" encoding="UTF-8"?><svg id="a" xmlns="http://www.w3.org/2000/svg" width="130" height="130" viewBox="0 0 130 130"><g id="b"><path d="m111.5,64.73v21.3c-.78,11-9.98,19.49-21,19.4h-43.42l-13.58,13.14v-13.57c-8.91-2.61-15.02-10.79-15-20.07v-20.6c0-11.54,9.36-20.9,20.9-20.9h28.64c-5.24,2.88-10.44,6.63-10.54,20.35v.65h14v-.53c0-4.87,1-8.1,3.88-10,4.29-2.81,12.46-4.66,17-10.41.31,0,.61.07.92.12,10.43,1.62,18.13,10.57,18.2,21.12Z" fill="#34beee" stroke-width="0"/><path d="m92.44,43.53c-4.55,5.9-12.64,7.55-16.94,10.44-2.87,1.92-4,4.91-4,9.92v.54h-14v-.65c.1-13.72,4.7-17.47,10-20.35h22.9c.68,0,1.36.03,2.04.1Z" fill="#100f77" stroke-width="0"/><path d="m95.2,33.12c0,1.56-.17,3.12-.52,4.64-.49,2.1-1.43,4.07-2.77,5.76-.67-.06-1.33-.09-2-.09h-22.9l1-.52c3.75-2,8.89-3,11.15-5.36,1.17-1.21,1.79-2.85,1.73-4.53,0-7.93-7.41-9.79-13.86-9.79s-13.56,3.71-13.66,10.2h-14c.11-15.23,13.14-22,27.83-22s28.31,6.25,28,21.69Z" fill="#54117f" stroke-width="0"/><path d="m57.41,76.85c0,8.85,13.49,8.85,13.49,0s-13.49-8.94-13.49,0Z" fill="#100f77" stroke-width="0"/></g></svg>