<?xml version="1.0" encoding="UTF-8"?><svg id="a" xmlns="http://www.w3.org/2000/svg" width="130" height="130" viewBox="0 0 130 130"><g id="b"><path d="m121.5,62.71v10.79c.02,17.44-7.82,33.96-21.34,44.98-2.06,1.7-4.23,3.25-6.51,4.64l-2.65,1.63-2.66-1.63c-6.3-3.86-11.8-8.87-16.22-14.78-.9-1.19-1.75-2.42-2.54-3.67h21.92v-56h4.18c4.54,8.71,13.55,14.17,23.37,14.17.83,0,1.64-.05,2.45-.13Z" fill="#54117f" stroke-width="0"/><path d="m91.5,48.66v56h-21.92l-.17-.27c-5.82-9.25-8.91-19.95-8.91-30.87v-11.02c1.26.19,2.52.29,3.79.3,9.82,0,18.83-5.44,23.39-14.14h3.82Z" fill="#100f77" stroke-width="0"/><path d="m91.5,29.71v18.95h-3.82c-4.55,8.71-13.56,14.17-23.39,14.17-1.27-.01-2.53-.11-3.79-.3v10.99c0,10.93,3.09,21.64,8.92,30.89l.16.25H8.5V29.71L49.99,5.25l41.51,24.46Z" fill="#34beee" stroke-width="0"/></g></svg>