<?xml version="1.0" encoding="UTF-8"?><svg id="a" xmlns="http://www.w3.org/2000/svg" width="130" height="130" viewBox="0 0 130 130"><g id="b"><path d="m125.02,79.11v-17h-43v.37c-.09,5.77-1.45,11.45-4,16.63h47Zm0,20v-18h-48c-4.84,8.53-12.68,14.94-22,18h70Z" fill="#34beee" stroke-width="0"/><rect x="43.02" y="101.11" width="82" height="17" fill="#34beee" stroke-width="0"/><path d="m82.02,61.89v.22h-39v38.76c-21.42-.41-38.45-18.11-38.04-39.53,0-.36.02-.73.04-1.09.8-19.59,16.21-35.87,35.77-37.23,21.34-1.39,39.76,14.79,41.15,36.13.06.91.09,1.83.08,2.74Z" fill="#54117f" stroke-width="0"/><rect x="78.87" y="24.38" width="6.26" height="3" transform="translate(5.77 65.65) rotate(-45.07)" fill="#54117f" stroke-width="0"/><rect x="58.09" y="13.74" width="6.06" height="3" transform="translate(27.33 68.39) rotate(-71.55)" fill="#54117f" stroke-width="0"/><rect x="89.83" y="45.49" width="6.06" height="3" transform="translate(-10.07 31.65) rotate(-18.36)" fill="#54117f" stroke-width="0"/><path d="m82.02,62.11v.37c-.32,21.39-17.44,38.63-38.55,38.63h-.45v-39h39Z" fill="#100f77" stroke-width="0"/><path d="m41.02,83.11v-4.48l-.22-.09c-3.25-.32-8.93-1.65-11.69-6.92l4.08-1.64c1.92,3.19,6.45,4.89,10.24,4.94,5.88.06,9.57-2.29,9.61-6.15,0-4.25-5.4-5.44-9.51-6-7.43-.9-13.11-2.15-13-9.2s8.19-8.46,10.69-8.78l.8-.09v-4.59h4v4.61l1.18.14c4.3.71,7.05,2.36,8.74,5.31l-3.57,1.61c-1.67-2-5.09-3.5-8.39-3.53-5.46-.07-8.6,1.91-8.64,5.42,0,4.18,4.75,4.82,8.61,5.33,7.47,1,13.59,2.45,13.59,9.83-.07,6.14-5.38,9.22-10.6,9.54l.08.06v4.68h-6Z" fill="#fff" stroke-width="0"/></g></svg>