<?xml version="1.0" encoding="UTF-8"?><svg id="a" xmlns="http://www.w3.org/2000/svg" width="130" height="130" viewBox="0 0 130 130"><g id="b"><path d="m76.49,25.44v21.93c-3.74-1.03-7.62-1.52-11.5-1.46-3.89,0-7.76.54-11.5,1.63v-22.1h23Z" fill="#54117f" stroke-width="0"/><path d="m76.51,47.13c-21.16-6.35-43.46,5.65-49.81,26.81-6.35,21.16,5.65,43.46,26.81,49.81,3.78,1.14,7.71,1.7,11.66,1.69h2c.69,0,1.35-.08,2-.16.35,0,.69-.08,1-.12,21.91-2.85,37.35-22.92,34.5-44.83-2.04-15.66-13.1-28.66-28.24-33.17l.09-.03Z" fill="#34beee" stroke-width="0"/><polygon points="34.58 39.44 65.16 4.56 95.75 39.44 34.58 39.44" fill="#54117f" stroke-width="0"/><path d="m76.49,87.44v-40.32c-7.51-2.17-15.49-2.17-23,0v40.32h23Z" fill="#100f77" stroke-width="0"/></g></svg>